<svg xmlns="http://www.w3.org/2000/svg" data-guides="{&quot;vertical&quot;:[],&quot;horizontal&quot;:[]}" viewBox="0 0 1104 916"><path id="tSvg1619567a34f" fill="#CD7ED5" fill-opacity="1" stroke="none" stroke-opacity="1" stroke-width="1" d="m1013 155-16 46 55-6-18 51-23 12c3.333 8-36.833 25.81-33.5 33.81 8 11.333 77.753 193.73 64.38 201l-97.32 5.25-44.77-16.18-40.85-12.04-12.88 30.47.05 27.2 33.14 23.93 133.5 52.81 23.13 20.44 24.18 24.97L1075 679l-59.06 33.06-22.06-13.94-52.19 49.69L912 749l-25-24-30.52-24.81L812 683l-45.31-8.94L692 723l-146 24-67.71 63.91L449 820l-35 62-42 25-36-42-21 21-39.81 26.06L249 897l-15-44 18-24 35-84 33.74-95.16L330 598l-88.29 120.18L228 740l-38 41-112-5-54-59 83.44-7.81L51 689l-29-53 13-83 22.5 52.69L161 517l23-26 116.5-21.94L373 527l115-32-68-32-91.94-31.81-24.31 10.06L303 409l54.12-36.81L386 370l-49.56-10.5-61.78 28.34-46.54 4.04-30.5-20.82-4.31-39L224 352l30-4 22-32 19.81-24.19 74.91-25.22L402 271l-7-68 75.44 34.5L530 213l34-44 26-32 37-36 145-50 73 26 32.19-5.12L918 83l24 41"/><path id="tSvgc02eef8948" fill="#ECEFF7" fill-opacity="1" stroke="none" stroke-opacity="1" stroke-width="1" d="m760.63 75.5 55 81v27l64 36 100.88 44.19 93.12 101.81 18 57-29.94 59-39.12 7.62-51.94-37.62 51 42-35 12-51-12-27-9-31.5-11.94-43.5-8.06-41-21-33-54 41 64 35 16-9 119-34-12 31 16 129 76-47 31-19 23-45.62-33.19-94.38-22.81-33-13 29 16-27 31-221 38-3-37-15 34-15.87 22.62-112.13 48.38-44 82-50-50 33.76-82.53 34.98-101.63 7.26-43.84 26-49 18-21 34-19 25-8 26-8 29-2 29-4 25-7 27.62-13.63 31.13-25.81 33.25-27.56 52.33-102.2.55-27.92 31.62-86.69 23.5 12.81-12.75-105.69zl121 229"/><path id="tSvg10e702eab0" fill="#e2d5f5" fill-opacity="1" stroke="none" stroke-opacity="1" stroke-width="1" d="m841 550 35.56 6.04 26.69 6.15L1017 615l21 20-55 48-27-23-78-53-24.44-11.38-15.5-28.37z"/><path id="tSvgc6cd2da5ed" fill="#d9b6f4" fill-opacity="1" stroke="none" stroke-opacity="1" stroke-width="1" d="m482 738 54 7-87 69-42 66-47-44 9.92-25.55z"/><path id="tSvgadea6b133d" fill="#0d0d0d" fill-opacity="1" stroke="none" stroke-opacity="1" stroke-width="1" d="m888.44 290.94 21.31 25-7.63 25.81-41.37 6.19-14-32zl-8.69 25 3-13"/><path id="tSvga8b7aaf120" fill="#F8CA2F" fill-opacity="1" stroke="none" stroke-opacity="1" stroke-width="1" d="M1000 185.5s-49.667-39.333-53-49c5-7.333 148-131.167 153-138.5 6-2-100 187.5-100 187.5"/></svg>